<svg xmlns="http://www.w3.org/2000/svg" version="1.1" xmlns:xlink="http://www.w3.org/1999/xlink" xmlns:svgjs="http://svgjs.dev/svgjs" width="1000" height="623" viewBox="0 0 1000 623"><g transform="matrix(1,0,0,1,-0.6060606060606233,0.2522267206477409)"><svg viewBox="0 0 396 247" data-background-color="#000000" preserveAspectRatio="xMidYMid meet" height="623" width="1000" xmlns="http://www.w3.org/2000/svg" xmlns:xlink="http://www.w3.org/1999/xlink"><defs></defs><g id="tight-bounds" transform="matrix(1,0,0,1,0.2400000000000091,-0.09999999999999432)"><svg viewBox="0 0 395.52 247.2" height="247.2" width="395.52"><g><svg></svg></g><g><svg viewBox="0 0 395.52 247.2" height="247.2" width="395.52"><g><path d="M55.039 247.2l26.403-45.732h4.688l-23.931 41.45h271.122l-23.931-41.45 4.688 0 26.403 45.732zM197.76 0l26.403 45.732-4.687 0-21.716-37.613-21.716 37.613-4.687 0z" fill="#ffffff" data-fill-palette-color="tertiary"></path></g><g transform="matrix(1,0,0,1,102.7363852242744,67.97999999999999)"><svg viewBox="0 0 190.04722955145118 111.24" height="111.24" width="190.04722955145118"><g><svg viewBox="0 0 190.04722955145118 111.24" height="111.24" width="190.04722955145118"><g><svg viewBox="0 0 190.04722955145118 111.24" height="111.24" width="190.04722955145118"><g><svg viewBox="0 0 190.04722955145118 111.24" height="111.24" width="190.04722955145118"><g><svg viewBox="0 0 190.04722955145118 111.24" height="111.24" width="190.04722955145118"><g><svg viewBox="0 0 190.04722955145118 111.24" height="111.24" width="190.04722955145118"><g transform="matrix(1,0,0,1,0,0)"><svg width="190.04722955145118" viewBox="4 -37.900001525878906 64.75 37.900001525878906" height="111.24" data-palette-color="#ffffff"><path d="M25.3 0L17.2-13.7 13-13.7 13 0 4 0 4-37.9 19.35-37.9Q33.8-37.9 33.8-25.75L33.8-25.75Q33.8-17.1 26.25-14.65L26.25-14.65 35.3 0 25.3 0ZM13-30.3L13-21.3 19.35-21.3Q24.7-21.3 24.7-25.75L24.7-25.75Q24.7-28.1 23.4-29.2 22.1-30.3 19.35-30.3L19.35-30.3 13-30.3ZM68.75-37.9L68.75-30.2 58.4-30.2 58.4 0 49.4 0 49.4-30.2 39.05-30.2 39.05-37.9 68.75-37.9Z" opacity="1" transform="matrix(1,0,0,1,0,0)" fill="#ffffff" class="undefined-text-0" data-fill-palette-color="primary" id="text-0"></path></svg></g></svg></g></svg></g></svg></g><g></g></svg></g></svg></g></svg></g></svg></g></svg><rect width="395.52" height="247.2" fill="none" stroke="none" visibility="hidden"></rect></g></svg></g></svg>